<svg xmlns="http://www.w3.org/2000/svg" xmlns:xlink="http://www.w3.org/1999/xlink" width="283.97" height="239.54" viewBox="0 0 283.97 239.54"><defs><radialGradient id="a4cfe729-7487-425b-be22-f1d079f6d1b3" cx="72.07" cy="99.37" r="49.39" gradientUnits="userSpaceOnUse"><stop offset="0" stop-color="#ffe900"/><stop offset="0.12" stop-color="#fbe500" stop-opacity="0.98"/><stop offset="0.25" stop-color="#eeda00" stop-opacity="0.93"/><stop offset="0.37" stop-color="#dac700" stop-opacity="0.85"/><stop offset="0.5" stop-color="#bcac00" stop-opacity="0.74"/><stop offset="0.63" stop-color="#978a00" stop-opacity="0.59"/><stop offset="0.76" stop-color="#696000" stop-opacity="0.41"/><stop offset="0.89" stop-color="#342f00" stop-opacity="0.2"/><stop offset="1" stop-opacity="0"/></radialGradient><radialGradient id="1a3f319a-a7ff-4935-8970-b80f30982bfd" cx="69.64" cy="126.84" r="49.42" xlink:href="#a4cfe729-7487-425b-be22-f1d079f6d1b3"/><radialGradient id="3816bb2a-ed51-439c-b0a8-39343d7afba5" cx="70.4" cy="105.96" r="49.51" xlink:href="#a4cfe729-7487-425b-be22-f1d079f6d1b3"/><radialGradient id="82c76271-d7eb-483a-b297-2cbf9ba6f1c0" cx="69.64" cy="112.72" r="49.42" xlink:href="#a4cfe729-7487-425b-be22-f1d079f6d1b3"/><radialGradient id="7fdd6865-fa8f-4790-982e-ade1a68eb42a" cx="72.07" cy="140.19" r="49.39" xlink:href="#a4cfe729-7487-425b-be22-f1d079f6d1b3"/><radialGradient id="3ca521d8-ceed-4ac7-8963-beb0422fe3db" cx="82.32" cy="158.18" r="47.9" xlink:href="#a4cfe729-7487-425b-be22-f1d079f6d1b3"/><radialGradient id="51240704-4b47-4acf-82be-6b3c3ece2239" cx="78.07" cy="152.56" r="48.57" xlink:href="#a4cfe729-7487-425b-be22-f1d079f6d1b3"/><radialGradient id="d34fec1c-6a1c-4f3c-83a5-197efac4e8cc" cx="74.64" cy="146.54" r="49.07" xlink:href="#a4cfe729-7487-425b-be22-f1d079f6d1b3"/><radialGradient id="4617e9a6-ef02-42a3-97ed-9a3e9d9872ac" cx="70.4" cy="133.6" r="49.51" xlink:href="#a4cfe729-7487-425b-be22-f1d079f6d1b3"/><radialGradient id="5434da8d-c986-4655-9276-0802413d3000" cx="129.31" cy="58.49" r="41.71" xlink:href="#a4cfe729-7487-425b-be22-f1d079f6d1b3"/><radialGradient id="a3d30c16-f2d7-4fb3-9bc5-e9f784e438ab" cx="99.38" cy="67.63" r="45.22" xlink:href="#a4cfe729-7487-425b-be22-f1d079f6d1b3"/><radialGradient id="0b29b58d-16b9-4251-9825-cb6d20dfec23" cx="106.27" cy="64.27" r="44.24" xlink:href="#a4cfe729-7487-425b-be22-f1d079f6d1b3"/><radialGradient id="2ed4ebe8-3f1d-4659-a77f-b557fd9db015" cx="113.62" cy="61.61" r="43.29" xlink:href="#a4cfe729-7487-425b-be22-f1d079f6d1b3"/><radialGradient id="2d9bb48d-e7dd-4706-8446-287b15b724a2" cx="74.64" cy="93.02" r="49.07" xlink:href="#a4cfe729-7487-425b-be22-f1d079f6d1b3"/><radialGradient id="56e53784-fbdc-42ba-bf76-10a827f653bd" cx="121.33" cy="59.68" r="42.43" xlink:href="#a4cfe729-7487-425b-be22-f1d079f6d1b3"/><radialGradient id="76ef9db5-c7f0-42c9-bcb0-c71edf0f3d08" cx="82.32" cy="81.38" r="47.9" xlink:href="#a4cfe729-7487-425b-be22-f1d079f6d1b3"/><radialGradient id="d76a4864-c2de-4666-8e66-01d2c3fa0af3" cx="87.33" cy="163.32" r="47.09" xlink:href="#a4cfe729-7487-425b-be22-f1d079f6d1b3"/><radialGradient id="07ff468d-a279-4096-96f8-f30ec1e0ae13" cx="87.33" cy="76.23" r="47.09" xlink:href="#a4cfe729-7487-425b-be22-f1d079f6d1b3"/><radialGradient id="99875ec9-3dc3-4df0-9436-7a9a0567ec05" cx="93.04" cy="71.63" r="46.19" xlink:href="#a4cfe729-7487-425b-be22-f1d079f6d1b3"/><radialGradient id="5dc7790f-eb1c-4509-9ac7-b198cdb2921e" cx="78.07" cy="87" r="48.57" xlink:href="#a4cfe729-7487-425b-be22-f1d079f6d1b3"/><radialGradient id="3e30be1a-3a05-46d8-9382-48340b49dd47" cx="121.33" cy="179.88" r="42.43" xlink:href="#a4cfe729-7487-425b-be22-f1d079f6d1b3"/><radialGradient id="48ed1ead-0eae-415b-b90b-e71e8e5d2cec" cx="129.31" cy="181.07" r="41.71" xlink:href="#a4cfe729-7487-425b-be22-f1d079f6d1b3"/><radialGradient id="75ffb464-c497-47bf-a460-b5ea1536969e" cx="141.98" cy="58.06" r="41.55" xlink:href="#a4cfe729-7487-425b-be22-f1d079f6d1b3"/><radialGradient id="5bc09c99-d772-4c2f-a7b4-f71734ac681e" cx="93.04" cy="167.93" r="46.19" xlink:href="#a4cfe729-7487-425b-be22-f1d079f6d1b3"/><radialGradient id="d991a096-8677-43e6-89b5-69e0cec47237" cx="113.62" cy="177.95" r="43.29" xlink:href="#a4cfe729-7487-425b-be22-f1d079f6d1b3"/><radialGradient id="9ce7f340-d332-4c5f-9a10-60ffe7771007" cx="99.38" cy="171.93" r="45.22" xlink:href="#a4cfe729-7487-425b-be22-f1d079f6d1b3"/><radialGradient id="ef2dd838-667e-492f-9980-f49683375593" cx="106.27" cy="175.29" r="44.23" xlink:href="#a4cfe729-7487-425b-be22-f1d079f6d1b3"/><radialGradient id="0fae1c76-9eda-43ca-b66d-f779cf2aef7f" cx="196.64" cy="76.21" r="47.09" xlink:href="#a4cfe729-7487-425b-be22-f1d079f6d1b3"/><radialGradient id="549c7f38-41ee-4ad8-a577-e735f30b93ab" cx="209.33" cy="93" r="49.07" xlink:href="#a4cfe729-7487-425b-be22-f1d079f6d1b3"/><radialGradient id="02ad5a69-3b34-4c31-9a4a-30da6f013982" cx="205.9" cy="86.98" r="48.57" xlink:href="#a4cfe729-7487-425b-be22-f1d079f6d1b3"/><radialGradient id="953968ba-d1b7-4e25-872f-f1817504fa19" cx="213.57" cy="105.94" r="49.51" xlink:href="#a4cfe729-7487-425b-be22-f1d079f6d1b3"/><radialGradient id="33b721fd-e49f-45f6-aa31-d002d4b4825b" cx="211.9" cy="99.35" r="49.39" xlink:href="#a4cfe729-7487-425b-be22-f1d079f6d1b3"/><radialGradient id="0bce130e-0b91-4f92-b82d-a2ac130eb079" cx="214.33" cy="112.69" r="49.42" xlink:href="#a4cfe729-7487-425b-be22-f1d079f6d1b3"/><radialGradient id="4ab18fe4-6893-4c57-846d-4914f46eac3f" cx="162.64" cy="59.65" r="42.43" xlink:href="#a4cfe729-7487-425b-be22-f1d079f6d1b3"/><radialGradient id="60de5c8f-bc95-4c4e-ace4-80c0ecd38c60" cx="190.92" cy="71.61" r="46.19" xlink:href="#a4cfe729-7487-425b-be22-f1d079f6d1b3"/><radialGradient id="a925fc73-6a40-4764-b39d-6c4993075633" cx="154.66" cy="58.47" r="41.71" xlink:href="#a4cfe729-7487-425b-be22-f1d079f6d1b3"/><radialGradient id="28eda03b-896e-40ae-ade8-6da60d8b777a" cx="170.35" cy="61.59" r="43.29" xlink:href="#a4cfe729-7487-425b-be22-f1d079f6d1b3"/><radialGradient id="55bc5e6e-b315-46f2-8cf5-7ea84f16ae61" cx="177.7" cy="64.25" r="44.24" xlink:href="#a4cfe729-7487-425b-be22-f1d079f6d1b3"/><radialGradient id="be129f8e-5866-4143-902b-4c43d2797636" cx="184.59" cy="67.6" r="45.22" xlink:href="#a4cfe729-7487-425b-be22-f1d079f6d1b3"/><radialGradient id="b5329f81-e3f9-46ca-ac91-0f257babd844" cx="201.65" cy="81.36" r="47.9" xlink:href="#a4cfe729-7487-425b-be22-f1d079f6d1b3"/><radialGradient id="ad896d27-8289-4de1-9d8d-927228ab8306" cx="209.33" cy="146.52" r="49.07" xlink:href="#a4cfe729-7487-425b-be22-f1d079f6d1b3"/><radialGradient id="2775c9a8-4fd6-433c-8962-24a15fc799fb" cx="205.9" cy="152.54" r="48.57" xlink:href="#a4cfe729-7487-425b-be22-f1d079f6d1b3"/><radialGradient id="cdd1f40d-a27a-41b6-ac58-dc597504223b" cx="196.64" cy="163.3" r="47.09" xlink:href="#a4cfe729-7487-425b-be22-f1d079f6d1b3"/><radialGradient id="eb3fa061-e170-4e20-b22d-879e348e8782" cx="201.65" cy="158.16" r="47.9" xlink:href="#a4cfe729-7487-425b-be22-f1d079f6d1b3"/><radialGradient id="4c57c09a-d389-4b75-ba1e-50d4407c54ec" cx="214.33" cy="126.82" r="49.42" xlink:href="#a4cfe729-7487-425b-be22-f1d079f6d1b3"/><radialGradient id="4c766e0d-f83a-4662-92b9-ca96073cc365" cx="213.57" cy="133.58" r="49.51" xlink:href="#a4cfe729-7487-425b-be22-f1d079f6d1b3"/><radialGradient id="add3d758-1658-406d-bd98-05b17bc1c8b4" cx="211.9" cy="140.17" r="49.39" xlink:href="#a4cfe729-7487-425b-be22-f1d079f6d1b3"/><radialGradient id="813ed746-fa5c-4162-9490-51ad5602b6cd" cx="162.64" cy="179.86" r="42.43" xlink:href="#a4cfe729-7487-425b-be22-f1d079f6d1b3"/><radialGradient id="41805822-f4a6-4ee9-a241-e2b56aa58b7a" cx="141.98" cy="181.47" r="41.55" xlink:href="#a4cfe729-7487-425b-be22-f1d079f6d1b3"/><radialGradient id="9d38c82d-27fc-459c-b755-453254ebff8c" cx="170.35" cy="177.92" r="43.29" xlink:href="#a4cfe729-7487-425b-be22-f1d079f6d1b3"/><radialGradient id="cd9b4102-3f25-4023-8b8e-6dcbdce2c694" cx="154.66" cy="181.04" r="41.71" xlink:href="#a4cfe729-7487-425b-be22-f1d079f6d1b3"/><radialGradient id="fa9318e5-064a-4996-9ead-cda5a2e0e230" cx="190.92" cy="167.9" r="46.19" xlink:href="#a4cfe729-7487-425b-be22-f1d079f6d1b3"/><radialGradient id="ce582283-2837-4952-9dcf-d07c25bee7c8" cx="177.7" cy="175.26" r="44.23" xlink:href="#a4cfe729-7487-425b-be22-f1d079f6d1b3"/><radialGradient id="3ee14fef-33ff-4c49-9a2c-7ac4396c6247" cx="184.59" cy="171.91" r="45.22" xlink:href="#a4cfe729-7487-425b-be22-f1d079f6d1b3"/><radialGradient id="7c34da2d-dc0a-4a9a-a887-e12b44f79f11" cx="141.98" cy="99.22" r="40.92" gradientUnits="userSpaceOnUse"><stop offset="0"/><stop offset="0.86" stop-opacity="0.53"/><stop offset="1" stop-opacity="0"/></radialGradient></defs><title>logo-swc-2018</title><g id="08c732df-468a-47df-a55b-721446c06ddd" data-name="Layer 3"><g opacity="0.4"><polygon points="7.71 80.63 4.79 87.78 139.35 118.1 7.71 80.63" fill="url(#a4cfe729-7487-425b-be22-f1d079f6d1b3)"/><polygon points="0 125.28 0.93 132.8 139.28 120.89 0 125.28" fill="url(#1a3f319a-a7ff-4935-8970-b80f30982bfd)"/><polygon points="3.43 93.53 1.5 100.92 139.3 118.39 3.43 93.53" fill="url(#3816bb2a-ed51-439c-b0a8-39343d7afba5)"/><polygon points="0.93 106.76 0 114.28 139.28 118.67 0.93 106.76" fill="url(#82c76271-d7eb-483a-b297-2cbf9ba6f1c0)"/><polygon points="4.79 151.78 7.71 158.93 139.35 121.46 4.79 151.78" fill="url(#7fdd6865-fa8f-4790-982e-ade1a68eb42a)"/><polygon points="24.89 188.18 30.5 194.11 139.74 122.25 24.89 188.18" fill="url(#3ca521d8-ceed-4ac7-8963-beb0422fe3db)"/><polygon points="16.56 176.7 21.33 183.13 139.58 122 16.56 176.7" fill="url(#51240704-4b47-4acf-82be-6b3c3ece2239)"/><polygon points="9.83 164.52 13.7 171.35 139.45 121.73 9.83 164.52" fill="url(#d34fec1c-6a1c-4f3c-83a5-197efac4e8cc)"/><polygon points="1.5 138.64 3.43 146.02 139.3 121.17 1.5 138.64" fill="url(#4617e9a6-ef02-42a3-97ed-9a3e9d9872ac)"/><polygon points="125.97 0.81 116.98 1.66 141.65 116.18 125.97 0.81" fill="url(#5434da8d-c986-4655-9276-0802413d3000)"/><polygon points="65.99 18.58 58.35 22.63 140.42 116.67 65.99 18.58" fill="url(#a3d30c16-f2d7-4fb3-9bc5-e9f784e438ab)"/><polygon points="79.99 12.04 71.85 15.34 140.7 116.51 79.99 12.04" fill="url(#0b29b58d-16b9-4251-9825-cb6d20dfec23)"/><polygon points="94.78 6.86 86.24 9.37 141 116.37 94.78 6.86" fill="url(#2ed4ebe8-3f1d-4659-a77f-b557fd9db015)"/><polygon points="13.7 68.21 9.83 75.04 139.45 117.83 13.7 68.21" fill="url(#2d9bb48d-e7dd-4706-8446-287b15b724a2)"/><polygon points="110.17 3.1 101.35 4.79 141.32 116.26 110.17 3.1" fill="url(#56e53784-fbdc-42ba-bf76-10a827f653bd)"/><polygon points="30.5 45.45 24.89 51.38 139.74 117.31 30.5 45.45" fill="url(#76ef9db5-c7f0-42c9-bcb0-c71edf0f3d08)"/><polygon points="34.72 198.8 41.09 204.17 139.94 122.48 34.72 198.8" fill="url(#d76a4864-c2de-4666-8e66-01d2c3fa0af3)"/><polygon points="41.09 35.39 34.72 40.76 139.94 117.08 41.09 35.39" fill="url(#07ff468d-a279-4096-96f8-f30ec1e0ae13)"/><polygon points="52.97 26.4 45.92 31.14 140.17 116.86 52.97 26.4" fill="url(#99875ec9-3dc3-4df0-9436-7a9a0567ec05)"/><polygon points="21.33 56.43 16.56 62.85 139.58 117.56 21.33 56.43" fill="url(#5dc7790f-eb1c-4509-9ac7-b198cdb2921e)"/><polygon points="101.35 234.77 110.17 236.46 141.32 123.3 101.35 234.77" fill="url(#3e30be1a-3a05-46d8-9382-48340b49dd47)"/><polygon points="116.98 237.9 125.97 238.75 141.65 123.38 116.98 237.9" fill="url(#48ed1ead-0eae-415b-b90b-e71e8e5d2cec)"/><polygon points="141.99 116.11 151.03 0 141.99 0 141.99 0.02 132.93 0.02 141.99 116.13 141.99 116.11" fill="url(#75ffb464-c497-47bf-a460-b5ea1536969e)"/><polygon points="45.92 208.42 52.97 213.16 140.17 122.7 45.92 208.42" fill="url(#5bc09c99-d772-4c2f-a7b4-f71734ac681e)"/><polygon points="86.24 230.19 94.78 232.7 141 123.19 86.24 230.19" fill="url(#d991a096-8677-43e6-89b5-69e0cec47237)"/><polygon points="58.35 216.93 65.99 220.98 140.42 122.89 58.35 216.93" fill="url(#9ce7f340-d332-4c5f-9a10-60ffe7771007)"/><polygon points="71.85 224.22 79.99 227.52 140.7 123.05 71.85 224.22" fill="url(#ef2dd838-667e-492f-9980-f49683375593)"/><polygon points="249.25 40.74 242.88 35.37 144.03 117.06 249.25 40.74" fill="url(#0fae1c76-9eda-43ca-b66d-f779cf2aef7f)"/><polygon points="274.14 75.02 270.27 68.19 144.52 117.81 274.14 75.02" fill="url(#549c7f38-41ee-4ad8-a577-e735f30b93ab)"/><polygon points="267.41 62.83 262.64 56.41 144.39 117.54 267.41 62.83" fill="url(#02ad5a69-3b34-4c31-9a4a-30da6f013982)"/><polygon points="282.47 100.89 280.54 93.51 144.67 118.36 282.47 100.89" fill="url(#953968ba-d1b7-4e25-872f-f1817504fa19)"/><polygon points="279.18 87.76 276.26 80.61 144.62 118.08 279.18 87.76" fill="url(#33b721fd-e49f-45f6-aa31-d002d4b4825b)"/><polygon points="283.97 114.25 283.04 106.74 144.69 118.65 283.97 114.25" fill="url(#0bce130e-0b91-4f92-b82d-a2ac130eb079)"/><polygon points="182.62 4.76 173.8 3.07 142.65 116.24 182.62 4.76" fill="url(#4ab18fe4-6893-4c57-846d-4914f46eac3f)"/><polygon points="238.05 31.11 231 26.38 143.8 116.84 238.05 31.11" fill="url(#60de5c8f-bc95-4c4e-ace4-80c0ecd38c60)"/><polygon points="166.99 1.64 158 0.79 142.32 116.16 166.99 1.64" fill="url(#a925fc73-6a40-4764-b39d-6c4993075633)"/><polygon points="197.73 9.35 189.19 6.83 142.97 116.34 197.73 9.35" fill="url(#28eda03b-896e-40ae-ade8-6da60d8b777a)"/><polygon points="212.12 15.32 203.98 12.02 143.27 116.48 212.12 15.32" fill="url(#55bc5e6e-b315-46f2-8cf5-7ea84f16ae61)"/><polygon points="225.62 22.6 217.97 18.56 143.55 116.65 225.62 22.6" fill="url(#be129f8e-5866-4143-902b-4c43d2797636)"/><polygon points="259.08 51.36 253.47 45.42 144.23 117.29 259.08 51.36" fill="url(#b5329f81-e3f9-46ca-ac91-0f257babd844)"/><polygon points="270.27 171.33 274.14 164.5 144.52 121.71 270.27 171.33" fill="url(#ad896d27-8289-4de1-9d8d-927228ab8306)"/><polygon points="262.64 183.1 267.41 176.68 144.39 121.97 262.64 183.1" fill="url(#2775c9a8-4fd6-433c-8962-24a15fc799fb)"/><polygon points="242.88 204.14 249.25 198.77 144.03 122.46 242.88 204.14" fill="url(#cdd1f40d-a27a-41b6-ac58-dc597504223b)"/><polygon points="253.47 194.09 259.08 188.16 144.23 122.22 253.47 194.09" fill="url(#eb3fa061-e170-4e20-b22d-879e348e8782)"/><polygon points="283.04 132.77 283.97 125.26 144.69 120.86 283.04 132.77" fill="url(#4c57c09a-d389-4b75-ba1e-50d4407c54ec)"/><polygon points="280.54 146 282.47 138.62 144.67 121.15 280.54 146" fill="url(#4c766e0d-f83a-4662-92b9-ca96073cc365)"/><polygon points="276.26 158.91 279.18 151.75 144.62 121.43 276.26 158.91" fill="url(#add3d758-1658-406d-bd98-05b17bc1c8b4)"/><polygon points="173.8 236.44 182.62 234.75 142.65 123.28 173.8 236.44" fill="url(#813ed746-fa5c-4162-9490-51ad5602b6cd)"/><polygon points="141.99 123.43 132.93 239.54 141.99 239.54 141.99 239.52 151.03 239.52 141.99 123.41 141.99 123.43" fill="url(#41805822-f4a6-4ee9-a241-e2b56aa58b7a)"/><polygon points="189.19 232.68 197.73 230.17 142.97 123.17 189.19 232.68" fill="url(#9d38c82d-27fc-459c-b755-453254ebff8c)"/><polygon points="158 238.73 166.99 237.88 142.32 123.36 158 238.73" fill="url(#cd9b4102-3f25-4023-8b8e-6dcbdce2c694)"/><polygon points="231 213.13 238.05 208.4 143.8 122.67 231 213.13" fill="url(#fa9318e5-064a-4996-9ead-cda5a2e0e230)"/><polygon points="203.98 227.5 212.12 224.2 143.27 123.03 203.98 227.5" fill="url(#ce582283-2837-4952-9dcf-d07c25bee7c8)"/><polygon points="217.97 220.95 225.62 216.91 143.55 122.86 217.97 220.95" fill="url(#3ee14fef-33ff-4c49-9a2c-7ac4396c6247)"/></g><path d="M182.9,99.21A40.92,40.92,0,1,0,142,140.13,40.92,40.92,0,0,0,182.9,99.21Z" fill-rule="evenodd" fill="url(#7c34da2d-dc0a-4a9a-a887-e12b44f79f11)"/><path d="M35.87,129a10.08,10.08,0,0,0-5.17,1.79A8,8,0,0,0,27.52,137a9.65,9.65,0,0,0,1.84,5.37c.94,1.16,3.31,3.61,3.31,3.61a.34.34,0,0,1,.09.22.33.33,0,0,1-.33.33H10.81V156h26A8.51,8.51,0,0,0,43,141.85c-.58-.7-2.9-3.13-3.38-3.64a.29.29,0,0,1-.09-.2.28.28,0,0,1,.18-.26H52.21V156h9.62V137.8H73.51V129Z" fill="#fff"/><path d="M127.57,146.46c-1.61,0-1.72-.65-1.72-.74s.2-.27.2-.27a15.74,15.74,0,0,0,1.83-1.25,7.75,7.75,0,0,0,2.94-6.33,8.13,8.13,0,0,0-2.91-6.49,10.68,10.68,0,0,0-6.09-2.4h-18.9v26.9a.17.17,0,0,0,.17.16h10.52V148.5c0-.14.2,0,.2,0l5.48,5.5a8.4,8.4,0,0,0,5.17,2h16.18v-9.58Zm-7.78-6.4h-5.91a.22.22,0,0,1-.15-.22v-3a.22.22,0,0,1,.16-.22h5.41a1.76,1.76,0,0,1,1.9,1.76A1.65,1.65,0,0,1,119.79,140.06Z" fill="#fff"/><path d="M92.9,129.22a.34.34,0,0,0-.3-.24H78.07a.33.33,0,0,0-.31.24s-8,26.53-8,26.58A.24.24,0,0,0,70,156h9.61a.28.28,0,0,0,.16-.19l1.11-3.57a.27.27,0,0,1,.22-.16h8.86a.27.27,0,0,1,.22.16l1.14,3.57a.28.28,0,0,0,.16.19h9.45a.24.24,0,0,0,.24-.24S92.9,129.22,92.9,129.22Zm-5.33,15.54H83.62a.28.28,0,0,1-.25-.3c0-.06,2.11-6.85,2.11-6.85.08-.25.1-.26.11-.26h0s0,0,.12.26c0,0,2.1,6.79,2.1,6.85A.27.27,0,0,1,87.57,144.76Z" fill="#fff"/><path d="M204.09,129.26a.33.33,0,0,0-.3-.25H189.26a.36.36,0,0,0-.31.25s-8,26.52-8,26.57a.24.24,0,0,0,.24.24h9.61a.24.24,0,0,0,.15-.17l1.12-3.58a.25.25,0,0,1,.21-.16h8.87a.25.25,0,0,1,.21.16l1.15,3.58a.25.25,0,0,0,.15.18h9.45a.24.24,0,0,0,.24-.24S204.09,129.26,204.09,129.26Zm-5.33,15.53h-4a.28.28,0,0,1-.24-.3c0-.06,2.11-6.84,2.11-6.84.07-.26.08-.27.11-.27h0s0,0,.11.27c0,0,2.11,6.78,2.11,6.84A.29.29,0,0,1,198.76,144.79Z" fill="#fff"/><path d="M259.79,137.78h13.37V129H256a10.08,10.08,0,0,0-5.17,1.79,8,8,0,0,0-3.17,6.18,9.68,9.68,0,0,0,1.83,5.37c.94,1.16,3.31,3.59,3.31,3.59a.34.34,0,0,1,.09.22.33.33,0,0,1-.34.32H239.27c-1.61,0-1.73-.65-1.73-.74s.2-.27.2-.27a15.24,15.24,0,0,0,1.84-1.25,7.76,7.76,0,0,0,2.93-6.34,8.09,8.09,0,0,0-2.9-6.48,10.55,10.55,0,0,0-6.09-2.39h-18.9v26.89a.16.16,0,0,0,.16.15h10.53v-7.54c0-.13.2,0,.2,0L231,154a8.34,8.34,0,0,0,5.17,2h20.72a8.5,8.5,0,0,0,6.2-14.17c-.58-.7-2.89-3.14-3.37-3.65a.27.27,0,0,1,.08-.46Zm-28.31,2.31h-5.9a.22.22,0,0,1-.16-.22v-3a.24.24,0,0,1,.16-.23H231a1.76,1.76,0,0,1,1.9,1.77A1.66,1.66,0,0,1,231.48,140.09Z" fill="#fff"/><path d="M176.12,156.06a.15.15,0,0,0,.14-.13s8.14-26.73,8.14-26.76a.15.15,0,0,0-.11-.16h-10c-.06,0-.09,0-.1.1l-2.07,6.95c0,.06-.05.1-.1.1a.12.12,0,0,1-.1-.1l-2.17-7a.11.11,0,0,0-.1-.09H158.54a.12.12,0,0,0-.07.07l-1.95,7c0,.06,0,.1-.09.1a.11.11,0,0,1-.1-.08l-2.06-7a.11.11,0,0,0-.08-.09h-10.7a.16.16,0,0,0-.16.16v.05l8.26,26.72c0,.07.08.13.15.13h8.88a.19.19,0,0,0,.13-.13l3.09-9.95h0c0-.06,0-.09.09-.09s.08,0,.1.09l3,10a.14.14,0,0,0,.12.09Z" fill="#fff"/><polygon points="265.27 154.52 265.27 154.73 265.79 154.73 265.79 156.08 266 156.08 266 154.72 266.53 154.72 266.53 154.52 265.27 154.52" fill="#fff"/><polygon points="266.69 154.52 266.69 156.08 266.89 156.08 266.89 154.84 267.3 156.08 267.53 156.08 267.95 154.84 267.95 156.08 268.15 156.08 268.15 154.52 267.86 154.52 267.42 155.79 266.96 154.52 266.69 154.52" fill="#fff"/><path d="M272.25,120.71H172.46v-1.46s72.13-.09,78,0C269.27,119.48,272.25,120.71,272.25,120.71Z" fill="#919396"/><path d="M154.66,64.25a37.14,37.14,0,0,1,18.79,16.92,35.3,35.3,0,0,1-2.35,39.55h1.82a36.82,36.82,0,0,0-18.26-56.47Z" fill="#919396"/><path d="M11.72,120.71h99.79v-1.46s-72.13-.09-78,0C14.7,119.48,11.72,120.71,11.72,120.71Z" fill="#919396"/><path d="M129.31,64.25a37.14,37.14,0,0,0-18.79,16.92,35.3,35.3,0,0,0,2.35,39.55h-1.82a36.8,36.8,0,0,1,18.26-56.47Z" fill="#919396"/><path d="M22.61,164.69c10.37,0,12.08.63,12.08,6.67v4.5H24.19v-4.3c0-1.15-.3-1.59-1.71-1.59s-1.34.6-1.34,1.59v18.88c0,1.12.37,1.63,1.53,1.63,1,0,1.52-.39,1.52-1.07v-7.55h10.5v7.19c0,6-1.46,6.76-12,6.76-10.32,0-12-.68-12-6.76V171.36C10.64,165.48,11.8,164.69,22.61,164.69Z" fill="#fff"/><path d="M38.9,164.89H55.56v5.2H49.34v6.72h6.22v5.25H49.34v9.85h6.22v5.25H38.9Z" fill="#fff"/><path d="M59.83,164.89H70.27v27h6.22v5.25H59.83Z" fill="#fff"/><path d="M80.46,164.89H97.12v5.2H90.9v6.72h6.22v5.25H90.9v9.85h6.22v5.25H80.46Z" fill="#fff"/><path d="M101.39,164.89h12c10.55,0,12.08,1,12.08,6.67v3.38c0,2.94-1.34,4.41-4.7,4.89,3.72.92,4.7,2.31,4.7,5.37v5.24c0,5.69-1.4,6.72-12,6.72h-12Zm13.55,6.79c0-1.27-.3-1.59-2.26-1.59h-.79v6.76c.31,0,.67,0,.92,0,1.46,0,2.13-.28,2.13-1v-4.18Zm0,12.56c0-1.27-.3-1.59-2.26-1.59h-.79v9.26c.31,0,.67,0,.92,0,1.46,0,2.13-.27,2.13-1v-6.68Z" fill="#fff"/><path d="M129.65,164.89h12c10.56,0,12.09,1,12.09,6.67v3.34c0,3.62-.25,5.45-4.89,6.52,3.79.72,4.89,2.19,4.89,5.25v10.49H143.2V186.07c0-1.31-.49-1.71-2.44-1.71h-.61v12.8h-10.5Zm13.55,7.35v-.4c0-1.35-.06-1.75-2.14-1.75h-.91v8.27c.36,0,.67,0,1,0,1.65,0,2.08-.32,2.08-1.27v-4.89Z" fill="#fff"/><path d="M162.91,164.89h12.7L182,197.16h-9.89l-.8-6.36h-4.21l-.79,6.36h-9.77Zm7.94,20.66-1.59-12.44-1.59,12.44Z" fill="#fff"/><path d="M187.46,170.21h-5.38v-5.32h21.18v5.32h-5.37v26.95H187.46Z" fill="#fff"/><path d="M206.37,164.89h10.44v32.27H206.37Z" fill="#fff"/><path d="M233,164.69c10.38,0,12.09.67,12.09,6.67v19.28c0,6-1.47,6.76-12,6.76-10.32,0-12-.68-12-6.76V171.36C221,165.52,222.18,164.69,233,164.69Zm-1.46,25.75c0,1.12.3,1.63,1.53,1.63,1,0,1.52-.35,1.52-1V171.56c0-1.15-.3-1.59-1.71-1.59-.85,0-1.34.36-1.34,1v19.47Z" fill="#fff"/><path d="M249.28,164.89H259l5.19,16.53V164.89h9.1v32.27h-9.77l-5.25-15.82v15.82h-9Z" fill="#fff"/><path d="M169.32,99.46A27.34,27.34,0,1,0,142,126.79,27.34,27.34,0,0,0,169.32,99.46Z" fill="#ffe900" fill-rule="evenodd"/><path d="M166.74,98c0-14.78-11.09-26.75-24.76-26.75s-24.75,12-24.75,26.75,11.08,26.75,24.75,26.75S166.74,112.73,166.74,98Z" fill-rule="evenodd"/><polygon points="142.24 47.87 143.56 100.04 147.37 98.09 144.43 102.15 156.08 103.38 144.43 104.61 147.98 108.64 143.56 105.53 142.24 120.04 140.92 105.53 136.87 108.09 140 104.61 128.57 103.38 140 102.15 137.11 98.09 140.92 100.04 142.24 47.87" fill="#fff" fill-rule="evenodd"/><polygon points="143.89 102.4 148.25 100.57 144.62 103.14 143.89 102.4" fill="#fff" fill-rule="evenodd"/><polygon points="143.89 104.36 148.25 106.19 144.62 103.62 143.89 104.36" fill="#fff" fill-rule="evenodd"/><polygon points="140.76 104.36 136.4 106.19 140.03 103.62 140.76 104.36" fill="#fff" fill-rule="evenodd"/><polygon points="140.76 102.4 136.4 100.57 140.03 103.14 140.76 102.4" fill="#fff" fill-rule="evenodd"/><path d="M17.79,105.58c0-4.27,0-8.33,5.56-8.33,3.44,0,4.83,1.9,4.7,5.36H24.74c0-2.15-.38-3-1.39-3-1.9,0-2.14,1.79-2.14,5.92s.24,5.93,2.14,5.93c1.56,0,1.5-2,1.54-3.29h3.33c0,4.31-1.72,5.7-4.87,5.7C17.79,113.92,17.79,109.81,17.79,105.58Z" fill="#ffe900"/><path d="M37.17,104V97.51h3.38v16.14H37.17v-7.2H33.3v7.2H29.93V97.51H33.3V104Z" fill="#ffe900"/><path d="M42.92,113.65V97.51H46.3v16.14Z" fill="#ffe900"/><path d="M48.42,105.58c0-4.27,0-8.33,5.57-8.33,3.44,0,4.83,1.9,4.69,5.36H55.37c0-2.15-.38-3-1.38-3-1.9,0-2.15,1.79-2.15,5.92s.25,5.93,2.15,5.93c1.56,0,1.5-2,1.54-3.29h3.33c0,4.31-1.72,5.7-4.87,5.7C48.42,113.92,48.42,109.81,48.42,105.58Z" fill="#ffe900"/><path d="M59.23,113.65,63.7,97.51h4.44l4.39,16.14H69l-.89-3.58H63.47l-.91,3.58Zm6.5-13h0l-1.55,7h3.22Z" fill="#ffe900"/><path d="M80.94,102.48c0-1.5-.23-2.82-2-2.82-2.1,0-2.1,2.84-2.1,6,0,5.05.49,5.94,2.41,5.94a5.2,5.2,0,0,0,1.67-.31v-3.58H79.08V105.2h5.21v8.18a30.72,30.72,0,0,1-4.56.54c-5.68,0-6.32-2.35-6.32-8.47,0-4.07.2-8.2,5.72-8.2,3.3,0,5.36,1.85,5.16,5.23Z" fill="#ffe900"/><path d="M86.51,105.58c0-4.27,0-8.33,5.57-8.33s5.56,4.06,5.56,8.33,0,8.34-5.56,8.34S86.51,109.81,86.51,105.58Zm7.71,0c0-4.13-.24-5.92-2.14-5.92s-2.15,1.79-2.15,5.92.25,5.93,2.15,5.93S94.22,109.72,94.22,105.58Z" fill="#ffe900"/><path d="M189.83,113.87V111c9.63-6.92,11.65-7.72,11.65-9.77,0-.83-.57-1.61-2.32-1.61-2.54,0-2.67,1.3-2.67,2.36h-6.17c-.44-3.07,2.75-4.77,8.4-4.77,5.29,0,8.93,1.16,8.93,4.25,0,3.71-8,7.91-11.34,9.9H208v2.55Z" fill="#ffe900"/><path d="M228.8,105.37c0,5.17-.62,8.5-8.84,8.5s-8.84-3.33-8.84-8.5c0-6.31,1.31-8.41,8.84-8.41S228.8,99.06,228.8,105.37Zm-11.51,0c0,5,.22,6,2.67,6s2.67-1.06,2.67-6,0-6-2.67-6S217.29,100.34,217.29,105.41Z" fill="#ffe900"/><path d="M231.83,99.94a21.17,21.17,0,0,0,5.91-2.55h5.86v16.48H237V101.19a39.6,39.6,0,0,1-5.16,1.84Z" fill="#ffe900"/><path d="M255,109.78a1.45,1.45,0,0,0,.43,1.16,2.71,2.71,0,0,0,1.84.52c3.07,0,2.72-1.35,2.72-5.27a10.56,10.56,0,0,1-5.08,1.09c-4.68,0-6.48-2.27-6.48-4.46,0-3.24,1.84-5.86,8.71-5.86,9.06,0,9,3.9,9,8.52,0,4.07-.13,8.39-9.05,8.39-5.3,0-8.36-1-8.23-4.09Zm2.23-4.77c2.62,0,2.76-1.91,2.76-2.93s-.09-2.85-2.72-2.85-2.67,1.91-2.67,2.93S254.63,105,257.26,105Z" fill="#ffe900"/></g></svg>